#!OML:ASF F:\VICON\USERDATA\INSTALL\rory3\rory3.ASF
:FULLY-SPECIFIED
:DEGREES
2942
root -4.39539 17.6267 -2.63807 8.58759 -67.5933 -1.36506
lowerback 13.4878 2.80561 -0.499461
upperback 2.37853 3.69116 2.3835
thorax -5.23481 1.80309 2.13194
lowerneck -26.1041 5.00841 -4.75146
upperneck 20.6899 8.44143 1.26547
head 10.6828 3.60569 2.59162
rclavicle -2.5842e-015 3.57812e-014
rhumerus -19.9335 27.5592 -88.8665
rradius 118.576
rwrist 1.34396
rhand -20.3538 26.435
rfingers 7.12502
rthumb 5.99821 -3.46007
lclavicle -2.5842e-015 3.57812e-014
lhumerus -15.0558 -3.95082 86.9853
lradius 127.62
lwrist -2.84648
lhand -10.0608 6.45401
lfingers 7.12502
lthumb 15.9251 35.8193
rfemur -12.7451 4.71605 8.09581
rtibia 34.6572
rfoot -14.8429 3.66027
rtoes -3.6231
lfemur -33.2181 0.185822 -1.74582
ltibia 37.5708
lfoot 2.98394 -6.1766
ltoes -28.2583
2943
root -4.35841 17.6795 -2.60922 8.00514 -68.4615 -0.483364
lowerback 13.5396 2.89872 -0.694239
upperback 2.35451 3.78545 2.34918
thorax -5.30315 1.85281 2.1854
lowerneck -26.1022 5.28681 -4.52402
upperneck 20.7358 8.84759 0.8625
head 10.7184 3.75161 2.47713
rclavicle 3.33958e-014 -2.70347e-014
rhumerus -20.0578 27.5519 -88.6113
rradius 118.34
rwrist 1.4291
rhand -20.6418 26.7448
rfingers 7.12502
rthumb 5.7202 -3.15803
lclavicle 3.33958e-014 -2.70347e-014
lhumerus -15.4911 -3.87617 86.862
lradius 127.563
lwrist -2.91487
lhand -10.1699 6.57369
lfingers 7.12502
lthumb 15.82 35.9473
rfemur -13.4144 4.50256 7.70813
rtibia 35.0888
rfoot -14.8278 2.12536
rtoes -1.14213
lfemur -33.146 0.700096 -2.68545
ltibia 38.0562
lfoot 3.0455 -5.48215
ltoes -28.3819
2944
root -4.32106 17.7203 -2.57846 7.35668 -69.2035 0.437842
lowerback 13.5282 2.94512 -0.78563
upperback 2.37356 3.82713 2.24828
thorax -5.27763 1.87374 2.12397
lowerneck -26.0523 5.55076 -4.18303
upperneck 20.6444 9.19258 0.419904
head 10.7074 3.87957 2.31598
rclavicle 2.90226e-014 -2.62396e-014
rhumerus -20.5836 27.5028 -88.1972
rradius 118.402
rwrist 1.49531
rhand -20.8493 27.2674
rfingers 7.12502
rthumb 5.51984 -2.6407
lclavicle 2.90226e-014 -2.62396e-014
lhumerus -15.7283 -3.89756 86.5704
lradius 127.543
lwrist -2.81211
lhand -10.2545 7.00547
lfingers 7.12502
lthumb 15.7386 36.3855
rfemur -14.0975 3.72839 7.38146
rtibia 35.9042
rfoot -14.6042 1.16536
rtoes 1.37187
lfemur -33.1562 1.26129 -3.63597
ltibia 38.6673
lfoot 3.25961 -4.80898
ltoes -27.8137
2945
root -4.28346 17.7526 -2.55408 6.58288 -69.9593 1.45854
lowerback 13.4694 3.04424 -0.959143
upperback 2.44835 3.92441 2.13815
thorax -5.17461 1.92229 2.09255
lowerneck -25.9238 5.73156 -4.00128
upperneck 20.3611 9.4254 0.146523
head 10.5992 3.97652 2.21322
rclavicle -7.35503e-014 -2.62396e-014
rhumerus -21.3317 27.3615 -87.653
rradius 118.688
rwrist 1.53687
rhand -21.0056 27.6181
rfingers 7.12502
rthumb 5.36892 -2.2939
lclavicle -7.35503e-014 -2.62396e-014
lhumerus -15.7027 -4.00125 86.1513
lradius 127.473
lwrist -2.41939
lhand -10.2874 7.08936
lfingers 7.12502
lthumb 15.7069 36.4719
rfemur -14.8414 2.93973 7.10142
rtibia 37.1258
rfoot -14.2056 0.541916
rtoes 2.21998
lfemur -33.1509 1.88553 -4.57515
ltibia 39.3684
lfoot 3.43803 -4.22315
ltoes -26.5143
2946
root -4.245 17.7771 -2.53434 5.73591 -70.7545 2.46982
lowerback 13.4937 3.15559 -1.18112
upperback 2.49509 4.03618 2.11206
thorax -5.15735 1.97948 2.16957
lowerneck -25.7246 5.88315 -4.09228
upperneck 20.1543 9.68275 0.0154109
head 10.4848 4.08061 2.20618
rclavicle -1.15295e-014 8.74653e-015
rhumerus -21.6452 27.2393 -87.2071
rradius 118.705
rwrist 1.61322
rhand -21.0833 27.5528
rfingers 7.12502
rthumb 5.29391 -2.36107
lclavicle -1.15295e-014 8.74653e-015
lhumerus -15.7119 -3.99492 85.8096
lradius 127.436
lwrist -1.96788
lhand -10.2079 6.88529
lfingers 7.12502
lthumb 15.7834 36.2618
rfemur -15.5968 2.44474 6.79073
rtibia 38.7366
rfoot -13.6827 0.782099
rtoes 4.69929
lfemur -33.0823 2.61017 -5.49404
ltibia 40.1601
lfoot 3.61007 -3.80767
ltoes -25.7212
2947
root -4.2088 17.7895 -2.5133 4.83428 -71.6593 3.49273
lowerback 13.4697 3.20473 -1.42648
upperback 2.54532 4.06487 2.12789
thorax -5.11085 1.99629 2.32137
lowerneck -25.5185 6.10486 -4.34742
upperneck 20.0795 10.0729 -0.000309554
head 10.3983 4.24319 2.28817
rclavicle 3.57812e-014 -2.78299e-014
rhumerus -21.2584 27.3323 -87.0407
rradius 118.176
rwrist 1.86344
rhand -21.3204 27.4122
rfingers 7.12502
rthumb 5.06499 -2.50722
lclavicle 3.57812e-014 -2.78299e-014
lhumerus -15.8261 -3.67518 85.4857
lradius 127.524
lwrist -1.64465
lhand -10.1957 6.56147
lfingers 7.12502
lthumb 15.7952 35.9371
rfemur -16.4099 1.82094 6.48837
rtibia 40.6388
rfoot -12.6579 1.5606
rtoes 5.23773
lfemur -32.9757 3.4422 -6.40365
ltibia 41.0426
lfoot 3.82858 -3.30466
ltoes -25.3512
2948
root -4.17147 17.7787 -2.49372 3.78512 -72.4184 4.68993
lowerback 13.3589 3.18408 -1.695
upperback 2.63066 3.99656 2.10641
thorax -4.973 1.9645 2.46985
lowerneck -25.4518 6.356 -4.60709
upperneck 20.0836 10.4892 0.0881605
head 10.3558 4.42661 2.41802
rclavicle -6.12257e-014 8.74653e-015
rhumerus -20.6732 27.4221 -87.0274
rradius 117.59
rwrist 2.14171
rhand -21.4913 27.3242
rfingers 7.12502
rthumb 4.89995 -2.59916
lclavicle -6.12257e-014 8.74653e-015
lhumerus -15.8601 -3.30555 85.0984
lradius 127.697
lwrist -1.30756
lhand -10.1908 6.29342
lfingers 7.12502
lthumb 15.7999 35.6686
rfemur -17.2207 0.583367 6.36119
rtibia 42.6887
rfoot -11.07 2.37861
rtoes -1.50932
lfemur -33.0144 4.28891 -7.34105
ltibia 42.018
lfoot 4.22045 -2.84794
ltoes -25.2402
2949
root -4.13289 17.757 -2.4786 2.6536 -73.0445 5.88359
lowerback 13.3238 3.22095 -1.9329
upperback 2.73868 4.00534 2.05009
thorax -4.8524 1.96872 2.54753
lowerneck -25.5272 6.52031 -4.76011
upperneck 20.1809 10.7587 0.179991
head 10.3812 4.5451 2.51972
rclavicle 1.59028e-015 -1.27222e-014
rhumerus -20.3712 27.2729 -86.9373
rradius 117.379
rwrist 2.181
rhand -21.3279 27.1741
rfingers 7.12502
rthumb 5.05771 -2.74552
lclavicle 1.59028e-015 -1.27222e-014
lhumerus -15.6964 -3.26624 84.7245
lradius 127.894
lwrist -1.1175
lhand -10.2719 6.55589
lfingers 7.12502
lthumb 15.7218 35.9373
rfemur -17.7894 -0.388421 6.26651
rtibia 44.7008
rfoot -9.52131 3.62886
rtoes -6.01125
lfemur -33.0399 5.11359 -8.21081
ltibia 43.05
lfoot 4.77712 -2.48914
ltoes -24.7177
2950
root -4.09819 17.7322 -2.46853 1.56445 -73.6912 6.89842
lowerback 13.4721 3.35232 -2.19469
upperback 2.78884 4.13489 2.00699
thorax -4.90397 2.03432 2.62014
lowerneck -25.3925 6.63997 -4.58682
upperneck 20.163 10.9042 -0.0287292
head 10.3711 4.59951 2.4366
rclavicle 1.23246e-014 -1.90833e-014
rhumerus -20.3841 26.9771 -86.8668
rradius 117.356
rwrist 2.17927
rhand -21.2192 27.1245
rfingers 7.12502
rthumb 5.16268 -2.79264
lclavicle 1.23246e-014 -1.90833e-014
lhumerus -15.488 -3.44593 84.346
lradius 128.101
lwrist -1.01555
lhand -10.3283 6.84409
lfingers 7.12502
lthumb 15.6675 36.2297
rfemur -18.0908 -0.726355 6.15665
rtibia 46.4907
rfoot -8.20762 4.83732
rtoes -5.86008
lfemur -32.9238 5.99853 -8.93286
ltibia 44.0989
lfoot 5.39122 -2.19194
ltoes -23.6488
2951
root -4.06687 17.6988 -2.45652 0.274832 -74.023 7.96063
lowerback 13.7564 3.41279 -2.37873
upperback 2.83902 4.17713 1.96122
thorax -5.01889 2.05582 2.65514
lowerneck -25.1041 6.72893 -4.45733
upperneck 20.0596 10.9881 -0.153215
head 10.2962 4.64075 2.37057
rclavicle -7.11649e-014 1.35174e-014
rhumerus -20.1805 26.4319 -86.8411
rradius 117.271
rwrist 2.3038
rhand -20.9873 27.1116
rfingers 7.12502
rthumb 5.3866 -2.79998
lclavicle -7.11649e-014 1.35174e-014
lhumerus -15.2189 -3.63376 83.9174
lradius 128.299
lwrist -0.772612
lhand -10.1699 6.82585
lfingers 7.12502
lthumb 15.82 36.1995
rfemur -17.9296 -0.960337 6.02054
rtibia 47.8835
rfoot -7.2842 5.62252
rtoes -4.80864
lfemur -32.7339 6.58755 -9.63442
ltibia 45.1548
lfoot 5.70723 -2.11542
ltoes -24.9239
